<svg xmlns="http://www.w3.org/2000/svg" version="1.1" xmlns:xlink="http://www.w3.org/1999/xlink" xmlns:svgjs="http://svgjs.dev/svgjs" viewBox="0 0 1920 1080"><rect width="1920" height="1080" fill="#1c3682"></rect><g transform="matrix(0.8131727983645296,0.8131727983645295,-0.8131727983645295,0.8131727983645296,610.036579241952,-643.0636086655682)"><path d="M0,-1080C9.078578777218112,-989.2774044741324,67.62988600288698,-703.4452181178599,54.471472663308674,-535.6644268447942C41.313059323730364,-367.8836355717285,-58.507711755712656,-201.94301074875992,-78.95048003746984,-73.3152523616057C-99.39324831922704,55.312506025548515,-89.87045574610661,92.02595124438594,-68.18513702723446,236.1021234781311C-46.49981830836231,380.1782957118762,24.08335058278442,634.6992628632029,51.161432275763104,791.1417810408652C78.23951396874179,947.5842992185276,111.12620334975699,1023.8451898376953,94.28335313063764,1174.7572325441054C77.44050291151828,1325.6692752505155,-34.181776850513415,1532.40690937001,-49.895669038953024,1696.6140372793257C-65.60956122739263,1860.8211651886413,-8.315944839825503,2082.769006213221,0,2160L 1920 2160 L 1920 -1080 Z" fill="url(&quot;#SvgjsLinearGradient1245&quot;)"></path><path d="M213.33333333333331,-1080C228.6963393443855,-979.8989186329717,299.5343594127668,-684.0454679020653,305.51136939964647,-479.39351179783023C311.48837938652616,-274.74155569359516,249.5869751555046,-74.57606045296848,249.19539325461136,147.91173662541019C248.80381135371812,370.39953370378885,324.1431214908954,631.4027726322173,303.16187799428695,855.5332706724419C282.1806344976785,1079.6637687126663,138.27935638511957,1275.2836033121644,123.30793227496063,1492.6947248667573C108.3365081648017,1710.1058464213502,198.32909982360454,2048.7824541444597,213.33333333333331,2160L 1920 2160 L 1920 -1080 Z" fill="url(&quot;#SvgjsLinearGradient1246&quot;)"></path><path d="M426.66666666666663,-1080C436.13588835584954,-938.060102558537,470.16562156337795,-481.64052480675286,483.4819968017641,-228.36061535122187C496.7983720401503,24.91929410430913,528.554724613586,176.93331937971828,506.56491809698355,439.679456733186C484.57511158038113,702.4255940866537,364.8595329405357,1061.3961182251153,351.54315770214953,1348.1162087695843C338.22678246376336,1634.8362993140533,414.14608183924713,2024.6860347949307,426.66666666666663,2160L 1920 2160 L 1920 -1080 Z" fill="url(&quot;#SvgjsLinearGradient1247&quot;)"></path><path d="M640,-1080C634.9339405850966,-1014.7866697433352,602.925360865778,-836.6437551790602,609.6036435105793,-688.7200184600115C616.2819261553807,-540.7962817409627,674.1624221704002,-354.6058735023852,680.069695868808,-192.45757968570715C685.9769695672159,-30.30928586902914,644.5118827846889,119.18776951226263,645.0472857010261,284.1697444400566C645.5826886173634,449.15171936785055,699.207380975837,643.626150632267,683.2821133668313,797.4342698810567C667.3568457578255,951.2423891298464,561.800457649015,1072.8328149811541,549.4956800469914,1207.0184599327947C537.1909024449678,1341.2041048844353,594.3693944291881,1443.7178829130335,609.4534477546896,1602.548139590901C624.5375010801911,1761.3783962687685,634.9089079591149,2067.0913565984833,640,2160L 1920 2160 L 1920 -1080 Z" fill="url(&quot;#SvgjsLinearGradient1248&quot;)"></path><path d="M853.3333333333333,-1080C848.2388619033177,-978.4573359519275,835.9012698680689,-641.4868709257282,822.7665047532399,-470.7440157115649C809.631739638411,-300.00116049740154,761.1330884563017,-234.4353816009443,774.5247426443597,-55.54286871502009C787.9163968324176,123.34964417090413,881.0739302137324,425.9360090781702,903.1164298815874,602.6110616039803C925.1589295494423,779.2861141297903,926.4183853159282,819.9421402890628,906.7797406514891,1004.5074464398405C887.14109598705,1189.0727525906182,794.1922964479787,1517.4208062486196,785.2845618949527,1710.0028985086462C776.3768273419267,1902.584990768673,841.9918714269365,2085.0004830847743,853.3333333333333,2160L 1920 2160 L 1920 -1080 Z" fill="url(&quot;#SvgjsLinearGradient1249&quot;)"></path><path d="M1066.6666666666667,-1080C1062.0504741832644,-981.8091315692466,1053.29925295253,-692.7415528707145,1038.9695117662532,-490.85478941547933C1024.6397705799764,-288.9680259602442,986.8076517937266,-81.97653991862018,980.6882195490059,131.320580731411C974.5687873042853,344.6177013814422,1001.2926586667757,556.3576081051782,1002.2529182979293,788.9279344847077C1003.213177929083,1021.4982608642373,975.7141526078049,1298.230528089373,986.4497773359277,1526.7425390085882C997.1854020640505,1755.2545499278035,1053.2971851115435,2054.4570898347647,1066.6666666666667,2160L 1920 2160 L 1920 -1080 Z" fill="url(&quot;#SvgjsLinearGradient1250&quot;)"></path><path d="M1280,-1080C1296.294499592404,-1003.9600187999515,1378.7597901771367,-774.6777745801583,1377.7669975544243,-623.7601127997088C1376.774204931712,-472.84245101925944,1285.4983742460058,-304.4194237692851,1274.0432442637252,-174.49402931730384C1262.5881142814446,-44.56863486532254,1317.6889482192469,46.56912990332164,1309.036217660741,155.79225391217898C1300.383487102235,265.0153779210363,1239.2185859626386,365.08225359892543,1222.12686091269,480.8447147358402C1205.0351358627415,596.6071758727551,1205.5980714713926,709.0593811439251,1206.4858673610502,850.3670207336677C1207.3736632507078,991.6746603234103,1203.0199818970168,1179.3543208255394,1227.4536362506353,1328.690552274296C1251.8872906042538,1478.0267837230524,1344.330066191201,1607.8328348052555,1353.0877934827618,1746.3844094262063C1361.8455207743225,1884.935984047157,1292.1812989137936,2091.064068237701,1280,2160L 1920 2160 L 1920 -1080 Z" fill="url(&quot;#SvgjsLinearGradient1251&quot;)"></path><path d="M1493.3333333333333,-1080C1508.9508746909778,-1003.5532985861345,1596.8806892467994,-787.954929401367,1587.0385814792003,-621.3197915168071C1577.1964737116011,-454.6846536322471,1434.4835115307387,-226.9720955005653,1434.2806867277386,-80.18917269264023C1434.0778619247385,66.59375011528485,1591.0094151904862,120.00896144236057,1585.8216326611994,259.3777453307434C1580.6338501319126,398.74652921912616,1416.9146061129945,607.637213021417,1403.1539915520182,756.0235306376566C1389.3933769910418,904.4098482538961,1486.182687979925,978.0534622434819,1503.2579452953419,1149.6956510281807C1520.3332026107587,1321.3378398128793,1507.2596374381878,1617.4926051838788,1505.6055354445198,1785.8766633458488C1503.9514334508517,1954.2607215078187,1495.3787003518644,2097.6461105576414,1493.3333333333333,2160L 1920 2160 L 1920 -1080 Z" fill="url(&quot;#SvgjsLinearGradient1252&quot;)"></path><path d="M1706.6666666666665,-1080C1710.5645151585543,-938.3905735252116,1736.4262360617972,-489.9629187736931,1730.0537576179931,-230.34344115126953C1723.681279174189,29.276036471154043,1664.6743930881353,198.27074200529358,1668.4317960038422,477.7168657345414C1672.1891989195492,757.1629894637892,1746.2256966684301,1165.952778846641,1752.5981751122342,1446.3333012242174C1758.9706535560383,1726.7138236017938,1714.3219180742612,2041.0555502040363,1706.6666666666665,2160L 1920 2160 L 1920 -1080 Z" fill="url(&quot;#SvgjsLinearGradient1253&quot;)"></path></g><defs><linearGradient x1="0.1" y1="0" x2="0" y2="1" id="SvgjsLinearGradient1245"><stop stop-color="#1c3682" offset="0"></stop><stop stop-color="#1c4782" offset="0"></stop></linearGradient><linearGradient x1="0.1" y1="0" x2="0" y2="1" id="SvgjsLinearGradient1246"><stop stop-color="#1a3278" offset="0"></stop><stop stop-color="#1a4278" offset="0.1111111111111111"></stop></linearGradient><linearGradient x1="0.1" y1="0" x2="0" y2="1" id="SvgjsLinearGradient1247"><stop stop-color="#182e6e" offset="0"></stop><stop stop-color="#183c6e" offset="0.2222222222222222"></stop></linearGradient><linearGradient x1="0.1" y1="0" x2="0" y2="1" id="SvgjsLinearGradient1248"><stop stop-color="#162964" offset="0"></stop><stop stop-color="#163664" offset="0.3333333333333333"></stop></linearGradient><linearGradient x1="0.1" y1="0" x2="0" y2="1" id="SvgjsLinearGradient1249"><stop stop-color="#13255a" offset="0"></stop><stop stop-color="#13315a" offset="0.4444444444444444"></stop></linearGradient><linearGradient x1="0.1" y1="0" x2="0" y2="1" id="SvgjsLinearGradient1250"><stop stop-color="#112150" offset="0"></stop><stop stop-color="#112b50" offset="0.5555555555555556"></stop></linearGradient><linearGradient x1="0.1" y1="0" x2="0" y2="1" id="SvgjsLinearGradient1251"><stop stop-color="#0f1d46" offset="0"></stop><stop stop-color="#0f2646" offset="0.6666666666666666"></stop></linearGradient><linearGradient x1="0.1" y1="0" x2="0" y2="1" id="SvgjsLinearGradient1252"><stop stop-color="#0d193c" offset="0"></stop><stop stop-color="#0d213c" offset="0.7777777777777778"></stop></linearGradient><linearGradient x1="0.1" y1="0" x2="0" y2="1" id="SvgjsLinearGradient1253"><stop stop-color="#0b1532" offset="0"></stop><stop stop-color="#0b1b32" offset="0.8888888888888888"></stop></linearGradient></defs></svg>